<svg width="20" height="20" fill="none" xmlns="http://www.w3.org/2000/svg"><path clip-rule="evenodd" d="M11.667 1.75a.75.75 0 0 1 .75.75v3.333a.083.083 0 0 0 .083.084h3.333a.75.75 0 0 1 0 1.5H12.5a1.583 1.583 0 0 1-1.583-1.584V2.5a.75.75 0 0 1 .75-.75Z"/><path clip-rule="evenodd" d="M5.833 3.25a.917.917 0 0 0-.916.917v11.666a.917.917 0 0 0 .916.917h8.334a.917.917 0 0 0 .916-.917V6.977L11.356 3.25H5.833Zm-1.708-.792a2.417 2.417 0 0 1 1.708-.708h5.834a.75.75 0 0 1 .53.22l4.167 4.166c.14.141.22.332.22.53v9.167a2.417 2.417 0 0 1-2.417 2.417H5.833a2.417 2.417 0 0 1-2.416-2.417V4.167c0-.641.254-1.256.708-1.71Z"/><path clip-rule="evenodd" d="M10 8.416a.75.75 0 0 1 .75.75v5a.75.75 0 0 1-1.5 0v-5a.75.75 0 0 1 .75-.75Z"/><path clip-rule="evenodd" d="M6.97 11.136a.75.75 0 0 1 1.06 0l1.97 1.97 1.97-1.97a.75.75 0 1 1 1.06 1.06l-2.5 2.5a.75.75 0 0 1-1.06 0l-2.5-2.5a.75.75 0 0 1 0-1.06Z"/></svg>