<svg width="31" height="27" viewBox="0 0 31 27" fill="none" xmlns="http://www.w3.org/2000/svg">
<path d="M29.8072 4.74667H9.53801C9.22179 4.74667 8.91852 4.62165 8.69492 4.3991C8.47132 4.17655 8.3457 3.87471 8.3457 3.55998C8.3457 3.24525 8.47132 2.94341 8.69492 2.72087C8.91852 2.49832 9.22179 2.37329 9.53801 2.37329H29.8072C30.1235 2.37329 30.4267 2.49832 30.6503 2.72087C30.8739 2.94341 30.9995 3.24525 30.9995 3.55998C30.9995 3.87471 30.8739 4.17655 30.6503 4.3991C30.4267 4.62165 30.1235 4.74667 29.8072 4.74667Z" fill="white"/>
<path d="M4.76923 4.74667H1.19231C0.876088 4.74667 0.57282 4.62165 0.349219 4.3991C0.125618 4.17655 0 3.87471 0 3.55998C0 3.24525 0.125618 2.94341 0.349219 2.72087C0.57282 2.49832 0.876088 2.37329 1.19231 2.37329H4.76923C5.08545 2.37329 5.38872 2.49832 5.61232 2.72087C5.83592 2.94341 5.96154 3.24525 5.96154 3.55998C5.96154 3.87471 5.83592 4.17655 5.61232 4.3991C5.38872 4.62165 5.08545 4.74667 4.76923 4.74667Z" fill="white"/>
<path d="M21.4615 14.2403H1.19231C0.876088 14.2403 0.57282 14.1153 0.349219 13.8928C0.125618 13.6702 0 13.3684 0 13.0536C0 12.7389 0.125618 12.4371 0.349219 12.2145C0.57282 11.992 0.876088 11.8669 1.19231 11.8669H21.4615C21.7778 11.8669 22.081 11.992 22.3046 12.2145C22.5282 12.4371 22.6538 12.7389 22.6538 13.0536C22.6538 13.3684 22.5282 13.6702 22.3046 13.8928C22.081 14.1153 21.7778 14.2403 21.4615 14.2403Z" fill="white"/>
<path d="M9.53846 23.7337H1.19231C0.876088 23.7337 0.57282 23.6087 0.349219 23.3862C0.125618 23.1636 0 22.8618 0 22.547C0 22.2323 0.125618 21.9305 0.349219 21.7079C0.57282 21.4854 0.876088 21.3604 1.19231 21.3604H9.53846C9.85468 21.3604 10.1579 21.4854 10.3816 21.7079C10.6052 21.9305 10.7308 22.2323 10.7308 22.547C10.7308 22.8618 10.6052 23.1636 10.3816 23.3862C10.1579 23.6087 9.85468 23.7337 9.53846 23.7337Z" fill="white"/>
<path d="M7.15407 7.12015C6.44662 7.12015 5.75506 6.91135 5.16684 6.52017C4.57862 6.12898 4.12016 5.57297 3.84943 4.92246C3.5787 4.27194 3.50786 3.55613 3.64588 2.86554C3.7839 2.17495 4.12456 1.54061 4.62481 1.04272C5.12505 0.544838 5.76239 0.205774 6.45625 0.0684074C7.15011 -0.0689588 7.8693 0.00154253 8.5229 0.270996C9.1765 0.54045 9.73514 0.996753 10.1282 1.5822C10.5212 2.16765 10.731 2.85596 10.731 3.56007C10.731 4.50427 10.3541 5.40978 9.68334 6.07743C9.01254 6.74507 8.10273 7.12015 7.15407 7.12015ZM7.15407 2.37338C6.91826 2.37338 6.68774 2.44298 6.49166 2.57338C6.29559 2.70377 6.14277 2.88911 6.05252 3.10595C5.96228 3.32279 5.93867 3.56139 5.98467 3.79159C6.03068 4.02178 6.14424 4.23323 6.31098 4.39919C6.47773 4.56515 6.69018 4.67818 6.92147 4.72396C7.15275 4.76975 7.39248 4.74625 7.61035 4.65643C7.82822 4.56662 8.01443 4.41452 8.14544 4.21937C8.27645 4.02422 8.34638 3.79478 8.34638 3.56007C8.34638 3.24534 8.22076 2.94351 7.99716 2.72096C7.77356 2.49841 7.47029 2.37338 7.15407 2.37338Z" fill="white"/>
<path d="M23.8465 16.6136C23.139 16.6136 22.4474 16.4048 21.8592 16.0136C21.271 15.6224 20.8125 15.0664 20.5418 14.4159C20.2711 13.7653 20.2002 13.0495 20.3383 12.3589C20.4763 11.6684 20.8169 11.034 21.3172 10.5361C21.8174 10.0382 22.4548 9.69918 23.1486 9.56182C23.8425 9.42445 24.5617 9.49495 25.2153 9.7644C25.8689 10.0339 26.4275 10.4902 26.8206 11.0756C27.2136 11.6611 27.4234 12.3494 27.4234 13.0535C27.4234 13.9977 27.0465 14.9032 26.3757 15.5708C25.7049 16.2385 24.7951 16.6136 23.8465 16.6136ZM23.8465 11.8668C23.6106 11.8668 23.3801 11.9364 23.184 12.0668C22.988 12.1972 22.8352 12.3825 22.7449 12.5994C22.6547 12.8162 22.6311 13.0548 22.6771 13.285C22.7231 13.5152 22.8366 13.7266 23.0034 13.8926C23.1701 14.0586 23.3826 14.1716 23.6138 14.2174C23.8451 14.2632 24.0849 14.2397 24.3027 14.1498C24.5206 14.06 24.7068 13.9079 24.8378 13.7128C24.9688 13.5176 25.0388 13.2882 25.0388 13.0535C25.0388 12.7388 24.9131 12.4369 24.6895 12.2144C24.4659 11.9918 24.1627 11.8668 23.8465 11.8668Z" fill="white"/>
<path d="M11.9226 26.1072C11.2152 26.1072 10.5236 25.8984 9.9354 25.5072C9.34717 25.116 8.88871 24.56 8.61798 23.9095C8.34725 23.259 8.27642 22.5432 8.41443 21.8526C8.55245 21.162 8.89312 20.5277 9.39336 20.0298C9.8936 19.5319 10.531 19.1928 11.2248 19.0555C11.9187 18.9181 12.6379 18.9886 13.2915 19.2581C13.9451 19.5275 14.5037 19.9838 14.8967 20.5693C15.2898 21.1547 15.4996 21.843 15.4996 22.5471C15.4996 23.4913 15.1227 24.3968 14.4519 25.0645C13.7811 25.7321 12.8713 26.1072 11.9226 26.1072ZM11.9226 21.3604C11.6868 21.3604 11.4563 21.43 11.2602 21.5604C11.0641 21.6908 10.9113 21.8762 10.8211 22.093C10.7308 22.3098 10.7072 22.5485 10.7532 22.7786C10.7992 23.0088 10.9128 23.2203 11.0795 23.3863C11.2463 23.5522 11.4587 23.6652 11.69 23.711C11.9213 23.7568 12.161 23.7333 12.3789 23.6435C12.5968 23.5537 12.783 23.4016 12.914 23.2064C13.045 23.0113 13.1149 22.7818 13.1149 22.5471C13.1149 22.2324 12.9893 21.9306 12.7657 21.708C12.5421 21.4855 12.2388 21.3604 11.9226 21.3604Z" fill="white"/>
<path d="M29.8073 14.2403H26.2304C25.9142 14.2403 25.6109 14.1153 25.3873 13.8928C25.1637 13.6702 25.0381 13.3684 25.0381 13.0536C25.0381 12.7389 25.1637 12.4371 25.3873 12.2145C25.6109 11.992 25.9142 11.8669 26.2304 11.8669H29.8073C30.1235 11.8669 30.4268 11.992 30.6504 12.2145C30.874 12.4371 30.9996 12.7389 30.9996 13.0536C30.9996 13.3684 30.874 13.6702 30.6504 13.8928C30.4268 14.1153 30.1235 14.2403 29.8073 14.2403Z" fill="white"/>
<path d="M29.8075 23.7337H14.3075C13.9913 23.7337 13.6881 23.6087 13.4645 23.3862C13.2409 23.1636 13.1152 22.8618 13.1152 22.547C13.1152 22.2323 13.2409 21.9305 13.4645 21.7079C13.6881 21.4854 13.9913 21.3604 14.3075 21.3604H29.8075C30.1238 21.3604 30.427 21.4854 30.6506 21.7079C30.8742 21.9305 30.9998 22.2323 30.9998 22.547C30.9998 22.8618 30.8742 23.1636 30.6506 23.3862C30.427 23.6087 30.1238 23.7337 29.8075 23.7337Z" fill="white"/>
</svg>
