<svg width="24" height="24" fill="none" xmlns="http://www.w3.org/2000/svg"><path d="M16.48 2A5.526 5.526 0 0 1 22 7.52v8.96A5.526 5.526 0 0 1 16.48 22H7.52A5.525 5.525 0 0 1 2 16.48V7.52A5.526 5.526 0 0 1 7.52 2h8.96Zm3.746 14.48V7.52a3.75 3.75 0 0 0-3.745-3.745H7.519a3.749 3.749 0 0 0-3.744 3.744v8.962a3.749 3.749 0 0 0 3.744 3.744h8.962a3.75 3.75 0 0 0 3.745-3.744ZM12 7c2.757 0 5 2.243 5 5s-2.243 5-5 5-5-2.243-5-5 2.243-5 5-5Zm0 8.278A3.282 3.282 0 0 0 15.278 12 3.282 3.282 0 0 0 12 8.722 3.282 3.282 0 0 0 8.722 12 3.282 3.282 0 0 0 12 15.278Zm5.417-9.945c.33 0 .652.133.884.366.233.232.366.555.366.884 0 .329-.133.651-.366.884a1.262 1.262 0 0 1-.884.366 1.26 1.26 0 0 1-.883-.366 1.26 1.26 0 0 1-.367-.884 1.255 1.255 0 0 1 1.25-1.25Z" fill="#fff"/></svg>