<svg width="208" height="27" viewBox="0 0 208 27" fill="none" xmlns="http://www.w3.org/2000/svg">
<path d="M0.00800003 0.512C0.704 0.536 1.616 0.559999 2.744 0.583999C3.896 0.607999 5.048 0.619998 6.2 0.619998C7.4 0.619998 8.552 0.607999 9.656 0.583999C10.76 0.559999 11.54 0.547999 11.996 0.547999C14.444 0.547999 16.46 0.775999 18.044 1.232C19.652 1.688 20.852 2.384 21.644 3.32C22.436 4.232 22.832 5.396 22.832 6.812C22.832 7.7 22.652 8.564 22.292 9.404C21.932 10.244 21.32 11.012 20.456 11.708C19.592 12.38 18.404 12.92 16.892 13.328C15.404 13.712 13.508 13.904 11.204 13.904H7.748V13.184H10.844C12.068 13.184 12.992 12.92 13.616 12.392C14.264 11.84 14.696 11.12 14.912 10.232C15.152 9.32 15.272 8.312 15.272 7.208C15.272 5.312 15.008 3.848 14.48 2.816C13.976 1.76 13.088 1.232 11.816 1.232C11 1.232 10.472 1.436 10.232 1.844C9.992 2.252 9.872 3.08 9.872 4.328V22.184C9.872 23.048 9.932 23.696 10.052 24.128C10.196 24.56 10.448 24.848 10.808 24.992C11.168 25.136 11.708 25.232 12.428 25.28V26C11.732 25.952 10.832 25.928 9.728 25.928C8.648 25.904 7.544 25.892 6.416 25.892C5.12 25.892 3.896 25.904 2.744 25.928C1.616 25.928 0.704 25.952 0.00800003 26V25.28C0.752 25.232 1.304 25.136 1.664 24.992C2.024 24.848 2.264 24.56 2.384 24.128C2.504 23.696 2.564 23.048 2.564 22.184V4.328C2.564 3.44 2.504 2.792 2.384 2.384C2.264 1.952 2.012 1.664 1.628 1.52C1.268 1.352 0.728 1.256 0.00800003 1.232V0.512ZM7.532 13.292C8.396 13.316 9.212 13.364 9.98 13.436C10.748 13.508 11.456 13.58 12.104 13.652C12.752 13.7 13.304 13.736 13.76 13.76C16.328 13.88 18.248 14.324 19.52 15.092C20.816 15.86 21.608 16.988 21.896 18.476L22.652 22.22C22.844 23.108 23.06 23.72 23.3 24.056C23.54 24.392 23.864 24.56 24.272 24.56C24.512 24.56 24.716 24.524 24.884 24.452C25.052 24.38 25.22 24.26 25.388 24.092L25.856 24.56C25.112 25.304 24.296 25.808 23.408 26.072C22.544 26.36 21.56 26.504 20.456 26.504C18.896 26.504 17.636 26.228 16.676 25.676C15.716 25.1 15.128 24.08 14.912 22.616L14.372 19.016C14.228 18.032 14.048 17.156 13.832 16.388C13.616 15.62 13.328 15.02 12.968 14.588C12.608 14.132 12.116 13.904 11.492 13.904H7.604L7.532 13.292ZM46.0773 0.512C45.9813 1.712 45.9093 2.876 45.8613 4.004C45.8373 5.108 45.8253 5.96 45.8253 6.56C45.8253 7.064 45.8373 7.544 45.8613 8C45.8853 8.456 45.9093 8.84 45.9333 9.152H45.1053C44.8173 7.16 44.3373 5.6 43.6653 4.472C42.9933 3.32 42.2013 2.516 41.2893 2.06C40.4013 1.58 39.4653 1.34 38.4813 1.34H38.0133C37.3893 1.34 36.9213 1.4 36.6093 1.52C36.2973 1.616 36.0813 1.82 35.9613 2.132C35.8653 2.444 35.8173 2.936 35.8173 3.608V22.904C35.8173 23.552 35.8653 24.044 35.9613 24.38C36.0813 24.692 36.2973 24.908 36.6093 25.028C36.9213 25.124 37.3893 25.172 38.0133 25.172H39.2013C39.9933 25.172 40.8213 24.92 41.6853 24.416C42.5733 23.888 43.3893 23 44.1333 21.752C44.8773 20.504 45.4413 18.8 45.8253 16.64H46.6533C46.5813 17.504 46.5453 18.608 46.5453 19.952C46.5453 20.552 46.5573 21.416 46.5813 22.544C46.6053 23.648 46.6773 24.8 46.7973 26C45.5733 25.952 44.1933 25.928 42.6573 25.928C41.1213 25.904 39.7533 25.892 38.5533 25.892C37.9053 25.892 37.0773 25.892 36.0693 25.892C35.0853 25.892 34.0053 25.904 32.8293 25.928C31.6773 25.928 30.5013 25.94 29.3013 25.964C28.1253 25.964 27.0093 25.976 25.9533 26V25.28C26.6973 25.232 27.2493 25.136 27.6093 24.992C27.9693 24.848 28.2093 24.56 28.3293 24.128C28.4493 23.696 28.5093 23.048 28.5093 22.184V4.328C28.5093 3.44 28.4493 2.792 28.3293 2.384C28.2093 1.952 27.9573 1.664 27.5733 1.52C27.2133 1.352 26.6733 1.256 25.9533 1.232V0.512C27.0093 0.536 28.1253 0.559999 29.3013 0.583999C30.5013 0.583999 31.6773 0.595999 32.8293 0.619998C34.0053 0.619998 35.0853 0.619998 36.0693 0.619998C37.0773 0.619998 37.9053 0.619998 38.5533 0.619998C39.6573 0.619998 40.9053 0.619998 42.2973 0.619998C43.7133 0.595999 44.9733 0.559999 46.0773 0.512ZM40.8573 12.824C40.8573 12.824 40.8573 12.944 40.8573 13.184C40.8573 13.424 40.8573 13.544 40.8573 13.544H34.7373C34.7373 13.544 34.7373 13.424 34.7373 13.184C34.7373 12.944 34.7373 12.824 34.7373 12.824H40.8573ZM41.9013 8.072C41.8053 9.44 41.7573 10.484 41.7573 11.204C41.7813 11.924 41.7933 12.584 41.7933 13.184C41.7933 13.784 41.8053 14.444 41.8293 15.164C41.8533 15.884 41.9133 16.928 42.0093 18.296H41.1813C41.0373 17.408 40.7373 16.604 40.2813 15.884C39.8493 15.164 39.2853 14.6 38.5893 14.192C37.8933 13.76 37.0893 13.544 36.1773 13.544V12.824C36.8493 12.824 37.4613 12.68 38.0133 12.392C38.5653 12.104 39.0453 11.72 39.4533 11.24C39.8853 10.76 40.2333 10.244 40.4973 9.692C40.7853 9.14 40.9773 8.6 41.0733 8.072H41.9013ZM74.9634 0.512V1.196C74.1474 1.412 73.2354 1.808 72.2274 2.384C71.2434 2.96 70.1874 3.884 69.0594 5.156L62.4354 12.68L65.3514 8.864L73.8834 23.084C74.1954 23.588 74.5074 24.008 74.8194 24.344C75.1314 24.68 75.5514 24.992 76.0794 25.28V26C75.0714 25.952 73.9914 25.928 72.8394 25.928C71.7114 25.904 70.6314 25.892 69.5994 25.892C69.0474 25.892 68.3634 25.904 67.5474 25.928C66.7314 25.928 65.6994 25.952 64.4514 26V25.28C65.5794 25.232 66.2274 25.1 66.3954 24.884C66.5874 24.668 66.5034 24.26 66.1434 23.66L60.9234 14.84C60.6834 14.408 60.4674 14.084 60.2754 13.868C60.0834 13.652 59.8914 13.496 59.6994 13.4C59.5314 13.304 59.3034 13.244 59.0154 13.22V12.464C60.0714 12.416 61.0674 12.068 62.0034 11.42C62.9394 10.748 64.0674 9.668 65.3874 8.18L66.6114 6.812C67.6194 5.684 68.1474 4.712 68.1954 3.896C68.2674 3.056 68.0154 2.408 67.4394 1.952C66.8874 1.472 66.1554 1.22 65.2434 1.196V0.512C65.9154 0.536 66.5394 0.559999 67.1154 0.583999C67.7154 0.583999 68.3394 0.595999 68.9874 0.619998C69.6594 0.619998 70.4394 0.619998 71.3274 0.619998C72.0954 0.619998 72.7674 0.607999 73.3434 0.583999C73.9434 0.559999 74.4834 0.536 74.9634 0.512ZM61.7874 0.512V1.232C61.0674 1.256 60.5154 1.352 60.1314 1.52C59.7714 1.664 59.5314 1.952 59.4114 2.384C59.2914 2.792 59.2314 3.44 59.2314 4.328V22.184C59.2314 23.048 59.2914 23.696 59.4114 24.128C59.5554 24.56 59.8074 24.848 60.1674 24.992C60.5274 25.136 61.0674 25.232 61.7874 25.28V26C61.0914 25.952 60.1914 25.928 59.0874 25.928C58.0074 25.904 56.9034 25.892 55.7754 25.892C54.4794 25.892 53.2554 25.904 52.1034 25.928C50.9754 25.928 50.0634 25.952 49.3674 26V25.28C50.1114 25.232 50.6634 25.136 51.0234 24.992C51.3834 24.848 51.6234 24.56 51.7434 24.128C51.8634 23.696 51.9234 23.048 51.9234 22.184V4.328C51.9234 3.44 51.8634 2.792 51.7434 2.384C51.6234 1.952 51.3714 1.664 50.9874 1.52C50.6274 1.352 50.0874 1.256 49.3674 1.232V0.512C50.0634 0.536 50.9754 0.559999 52.1034 0.583999C53.2554 0.607999 54.4794 0.619998 55.7754 0.619998C56.9034 0.619998 58.0074 0.607999 59.0874 0.583999C60.1914 0.559999 61.0914 0.536 61.7874 0.512ZM89.288 0.512V1.232C88.472 1.256 87.848 1.352 87.416 1.52C87.008 1.664 86.732 1.952 86.588 2.384C86.444 2.792 86.372 3.44 86.372 4.328V22.904C86.372 23.552 86.42 24.044 86.516 24.38C86.612 24.692 86.792 24.908 87.056 25.028C87.32 25.124 87.704 25.172 88.208 25.172H89.396C90.02 25.172 90.692 24.932 91.412 24.452C92.132 23.972 92.828 23.312 93.5 22.472C94.196 21.632 94.796 20.684 95.3 19.628C95.804 18.548 96.164 17.432 96.38 16.28H97.208C97.136 17.144 97.1 18.248 97.1 19.592C97.1 20.216 97.112 21.128 97.136 22.328C97.16 23.504 97.232 24.728 97.352 26C96.128 25.952 94.748 25.928 93.212 25.928C91.676 25.904 90.308 25.892 89.108 25.892C88.46 25.892 87.632 25.892 86.624 25.892C85.64 25.892 84.56 25.904 83.384 25.928C82.232 25.928 81.056 25.94 79.856 25.964C78.68 25.964 77.564 25.976 76.508 26V25.28C77.252 25.232 77.804 25.136 78.164 24.992C78.524 24.848 78.764 24.56 78.884 24.128C79.004 23.696 79.064 23.048 79.064 22.184V4.328C79.064 3.44 79.004 2.792 78.884 2.384C78.764 1.952 78.512 1.664 78.128 1.52C77.768 1.352 77.228 1.256 76.508 1.232V0.512C77.204 0.536 78.116 0.559999 79.244 0.583999C80.396 0.607999 81.62 0.619998 82.916 0.619998C84.116 0.619998 85.292 0.607999 86.444 0.583999C87.596 0.559999 88.544 0.536 89.288 0.512ZM112.363 0.512L121.075 22.976C121.411 23.792 121.771 24.38 122.155 24.74C122.539 25.076 122.887 25.256 123.199 25.28V26C122.335 25.952 121.327 25.928 120.175 25.928C119.023 25.904 117.847 25.892 116.647 25.892C115.423 25.892 114.271 25.904 113.191 25.928C112.111 25.928 111.247 25.952 110.599 26V25.28C111.823 25.232 112.591 25.028 112.903 24.668C113.239 24.284 113.167 23.48 112.687 22.256L106.927 6.308L107.647 5.048L102.679 17.972C102.079 19.532 101.707 20.792 101.563 21.752C101.443 22.688 101.503 23.408 101.743 23.912C101.983 24.416 102.367 24.764 102.895 24.956C103.423 25.148 104.047 25.256 104.767 25.28V26C103.879 25.952 103.075 25.928 102.355 25.928C101.659 25.904 100.891 25.892 100.051 25.892C99.5952 25.892 99.1032 25.904 98.5752 25.928C98.0712 25.928 97.6392 25.952 97.2792 26V25.28C97.8312 25.184 98.3712 24.836 98.8992 24.236C99.4512 23.612 100.015 22.556 100.591 21.068L108.583 0.512C109.159 0.559999 109.783 0.583999 110.455 0.583999C111.151 0.583999 111.787 0.559999 112.363 0.512ZM113.623 15.632V16.352H102.895L103.255 15.632H113.623ZM137.289 0.512L146.001 22.976C146.337 23.792 146.697 24.38 147.081 24.74C147.465 25.076 147.813 25.256 148.125 25.28V26C147.261 25.952 146.253 25.928 145.101 25.928C143.949 25.904 142.773 25.892 141.573 25.892C140.349 25.892 139.197 25.904 138.117 25.928C137.037 25.928 136.173 25.952 135.525 26V25.28C136.749 25.232 137.517 25.028 137.829 24.668C138.165 24.284 138.093 23.48 137.613 22.256L131.853 6.308L132.573 5.048L127.605 17.972C127.005 19.532 126.633 20.792 126.489 21.752C126.369 22.688 126.429 23.408 126.669 23.912C126.909 24.416 127.293 24.764 127.821 24.956C128.349 25.148 128.973 25.256 129.693 25.28V26C128.805 25.952 128.001 25.928 127.281 25.928C126.585 25.904 125.817 25.892 124.977 25.892C124.521 25.892 124.029 25.904 123.501 25.928C122.997 25.928 122.565 25.952 122.205 26V25.28C122.757 25.184 123.297 24.836 123.825 24.236C124.377 23.612 124.941 22.556 125.517 21.068L133.509 0.512C134.085 0.559999 134.709 0.583999 135.381 0.583999C136.077 0.583999 136.713 0.559999 137.289 0.512ZM138.549 15.632V16.352H127.821L128.181 15.632H138.549ZM180.916 0.512V1.232C180.196 1.256 179.644 1.352 179.26 1.52C178.9 1.664 178.66 1.952 178.54 2.384C178.42 2.792 178.36 3.44 178.36 4.328V22.184C178.36 23.048 178.42 23.696 178.54 24.128C178.684 24.56 178.936 24.848 179.296 24.992C179.656 25.136 180.196 25.232 180.916 25.28V26C180.172 25.952 179.224 25.928 178.072 25.928C176.92 25.904 175.744 25.892 174.544 25.892C173.248 25.892 172.024 25.904 170.872 25.928C169.744 25.928 168.832 25.952 168.136 26V25.28C168.952 25.232 169.564 25.136 169.972 24.992C170.404 24.848 170.692 24.56 170.836 24.128C170.98 23.696 171.052 23.048 171.052 22.184V2.924L171.412 2.852L162.376 25.964H161.8L151.648 2.852V18.944C151.648 20.552 151.708 21.788 151.828 22.652C151.972 23.492 152.296 24.104 152.8 24.488C153.328 24.848 154.156 25.112 155.284 25.28V26C154.804 25.952 154.18 25.928 153.412 25.928C152.644 25.904 151.924 25.892 151.252 25.892C150.724 25.892 150.184 25.904 149.632 25.928C149.08 25.928 148.624 25.952 148.264 26V25.28C149.008 25.112 149.56 24.86 149.92 24.524C150.28 24.164 150.52 23.6 150.64 22.832C150.76 22.064 150.82 21.008 150.82 19.664V4.328C150.82 3.44 150.76 2.792 150.64 2.384C150.52 1.952 150.268 1.664 149.884 1.52C149.524 1.352 148.984 1.256 148.264 1.232V0.512C148.624 0.536 149.08 0.559999 149.632 0.583999C150.184 0.607999 150.724 0.619998 151.252 0.619998C152.644 0.619998 153.976 0.607999 155.248 0.583999C156.52 0.559999 157.672 0.536 158.704 0.512L165.832 16.568L164.752 17.756L171.412 0.619998C171.892 0.619998 172.408 0.619998 172.96 0.619998C173.512 0.619998 174.04 0.619998 174.544 0.619998C175.744 0.619998 176.92 0.607999 178.072 0.583999C179.224 0.559999 180.172 0.536 180.916 0.512ZM196.246 0.512L204.958 22.976C205.294 23.792 205.654 24.38 206.038 24.74C206.422 25.076 206.77 25.256 207.082 25.28V26C206.218 25.952 205.21 25.928 204.058 25.928C202.906 25.904 201.73 25.892 200.53 25.892C199.306 25.892 198.154 25.904 197.074 25.928C195.994 25.928 195.13 25.952 194.482 26V25.28C195.706 25.232 196.474 25.028 196.786 24.668C197.122 24.284 197.05 23.48 196.57 22.256L190.81 6.308L191.53 5.048L186.562 17.972C185.962 19.532 185.59 20.792 185.446 21.752C185.326 22.688 185.386 23.408 185.626 23.912C185.866 24.416 186.25 24.764 186.778 24.956C187.306 25.148 187.93 25.256 188.65 25.28V26C187.762 25.952 186.958 25.928 186.238 25.928C185.542 25.904 184.774 25.892 183.934 25.892C183.478 25.892 182.986 25.904 182.458 25.928C181.954 25.928 181.522 25.952 181.162 26V25.28C181.714 25.184 182.254 24.836 182.782 24.236C183.334 23.612 183.898 22.556 184.474 21.068L192.466 0.512C193.042 0.559999 193.666 0.583999 194.338 0.583999C195.034 0.583999 195.67 0.559999 196.246 0.512ZM197.506 15.632V16.352H186.778L187.138 15.632H197.506Z" fill="#242424"/>
</svg>
