<svg width="20" height="20" fill="none" xmlns="http://www.w3.org/2000/svg"><path fill-rule="evenodd" clip-rule="evenodd" d="M2.917 8.598c0-3.833 3.203-6.931 7.077-6.931 3.886 0 7.09 3.098 7.09 6.931 0 1.932-.703 3.725-1.86 5.245a18.389 18.389 0 0 1-4.617 4.284c-.405.265-.77.285-1.215 0a18.034 18.034 0 0 1-4.617-4.284c-1.157-1.52-1.859-3.313-1.859-5.245Zm4.745.216c0 1.284 1.048 2.294 2.332 2.294 1.286 0 2.344-1.01 2.344-2.294 0-1.274-1.058-2.333-2.344-2.333a2.345 2.345 0 0 0-2.332 2.333Z" fill="#fff"/></svg>