<svg width="20" height="20" fill="none" xmlns="http://www.w3.org/2000/svg"><path fill-rule="evenodd" clip-rule="evenodd" d="M15.59 7.33c0 1.047.276 1.664.884 2.375.462.524.61 1.196.61 1.925 0 .729-.24 1.42-.72 1.982a3.78 3.78 0 0 1-2.417 1.177c-1.309.112-2.62.206-3.947.206-1.328 0-2.638-.056-3.947-.206a3.777 3.777 0 0 1-2.417-1.177 3.013 3.013 0 0 1-.72-1.982c0-.73.149-1.402.61-1.925.627-.711.885-1.328.885-2.375v-.355c0-1.401.35-2.318 1.07-3.215 1.07-1.308 2.785-2.093 4.482-2.093h.075c1.733 0 3.504.822 4.556 2.187.682.879.995 1.757.995 3.121v.355ZM7.56 16.717c0-.42.385-.611.741-.694.417-.088 2.956-.088 3.372 0 .356.083.741.275.741.694-.02.4-.255.754-.579.98-.42.326-.912.534-1.427.608a3.16 3.16 0 0 1-.84 0 3.014 3.014 0 0 1-1.428-.61c-.325-.224-.56-.578-.58-.978Z" fill="#fff"/></svg>