<svg width="18" height="18" fill="none" xmlns="http://www.w3.org/2000/svg"><path clip-rule="evenodd" d="M12.959 10.417c.506 0 .93.418.853.917a6.043 6.043 0 0 1-6.006 5.123 6.08 6.08 0 0 1-6.08-6.08c0-2.766 2.1-5.343 4.467-5.925.508-.126 1.03.232 1.03.755 0 3.547.118 4.464.792 4.963.673.499 1.465.247 4.944.247Z" stroke="#6E7191" stroke-width="1.125" stroke-linecap="round" stroke-linejoin="round"/><path clip-rule="evenodd" d="M16.27 7.464c.04-2.279-2.759-5.951-6.17-5.888a.509.509 0 0 0-.489.49c-.086 1.873.03 4.301.095 5.402.02.342.289.611.63.631 1.132.065 3.648.153 5.495-.126a.521.521 0 0 0 .439-.51Z" stroke="#6E7191" stroke-width="1.125" stroke-linecap="round" stroke-linejoin="round"/></svg>