<svg width="39" height="39" viewBox="0 0 39 39" fill="none" xmlns="http://www.w3.org/2000/svg">
<path d="M19.5 8.7329C17.3721 8.7329 15.2921 9.36327 13.5228 10.5443C11.7536 11.7253 10.3746 13.404 9.56033 15.3679C8.74604 17.3319 8.53298 19.493 8.9481 21.5779C9.36323 23.6629 10.3879 25.578 11.8925 27.0812C13.3971 28.5843 15.3141 29.608 17.4011 30.0227C19.4881 30.4375 21.6513 30.2246 23.6171 29.4111C25.583 28.5976 27.2633 27.22 28.4455 25.4524C29.6276 23.6849 30.2586 21.6069 30.2586 19.4811C30.2542 16.6318 29.1193 13.9006 27.1026 11.8859C25.0859 9.87116 22.352 8.73734 19.5 8.7329ZM19.5 28.8857C17.6381 28.8857 15.8181 28.3342 14.27 27.3008C12.7219 26.2674 11.5153 24.7986 10.8028 23.0801C10.0903 21.3616 9.90386 19.4706 10.2671 17.6463C10.6303 15.822 11.5269 14.1462 12.8434 12.831C14.16 11.5157 15.8374 10.62 17.6635 10.2571C19.4896 9.89425 21.3824 10.0805 23.1025 10.7923C24.8226 11.5041 26.2929 12.7095 27.3273 14.2561C28.3617 15.8027 28.9138 17.621 28.9138 19.4811C28.9138 21.9753 27.922 24.3675 26.1566 26.1312C24.3911 27.8949 21.9967 28.8857 19.5 28.8857ZM18.8276 4.03057V0.671761C18.8276 0.493599 18.8984 0.322734 19.0245 0.196754C19.1506 0.0707746 19.3217 0 19.5 0C19.6783 0 19.8494 0.0707746 19.9755 0.196754C20.1016 0.322734 20.1724 0.493599 20.1724 0.671761V4.03057C20.1724 4.20873 20.1016 4.37959 19.9755 4.50557C19.8494 4.63155 19.6783 4.70233 19.5 4.70233C19.3217 4.70233 19.1506 4.63155 19.0245 4.50557C18.8984 4.37959 18.8276 4.20873 18.8276 4.03057ZM5.71552 6.65044C5.63845 6.59269 5.5747 6.51907 5.52858 6.43457C5.48247 6.35007 5.45507 6.25665 5.44824 6.16065C5.44141 6.06465 5.45531 5.9683 5.489 5.87813C5.52269 5.78796 5.57538 5.70608 5.6435 5.63802C5.71162 5.56997 5.79358 5.51733 5.88384 5.48367C5.97409 5.45002 6.07054 5.43613 6.16663 5.44296C6.26273 5.44978 6.35623 5.47715 6.44082 5.52322C6.5254 5.56929 6.59909 5.63298 6.6569 5.70997L9.04397 8.07793C9.16447 8.20825 9.23139 8.37915 9.23139 8.55656C9.23139 8.73397 9.16447 8.90487 9.04397 9.03519C8.97968 9.09766 8.90324 9.14628 8.81939 9.17805C8.73554 9.20983 8.64605 9.22408 8.55647 9.21992C8.46955 9.22276 8.38298 9.20784 8.30204 9.17607C8.22111 9.14431 8.14751 9.09637 8.08578 9.03519L5.71552 6.65044ZM4.7069 19.4811C4.7069 19.6592 4.63605 19.8301 4.50995 19.9561C4.38385 20.0821 4.21282 20.1528 4.03448 20.1528H0.672414C0.494079 20.1528 0.323047 20.0821 0.196945 19.9561C0.0708434 19.8301 0 19.6592 0 19.4811C0 19.3029 0.0708434 19.132 0.196945 19.0061C0.323047 18.8801 0.494079 18.8093 0.672414 18.8093H4.03448C4.21282 18.8093 4.38385 18.8801 4.50995 19.0061C4.63605 19.132 4.7069 19.3029 4.7069 19.4811ZM9.04397 29.927C9.16447 30.0573 9.23139 30.2282 9.23139 30.4056C9.23139 30.583 9.16447 30.7539 9.04397 30.8842L6.6569 33.2522C6.5966 33.3164 6.52365 33.3674 6.44265 33.4021C6.36165 33.4368 6.27433 33.4544 6.18621 33.4537C6.09823 33.4534 6.01122 33.4354 5.93035 33.4008C5.84949 33.3661 5.77642 33.3156 5.71552 33.2522C5.65248 33.1911 5.60236 33.118 5.56814 33.0373C5.53391 32.9565 5.51628 32.8697 5.51628 32.7819C5.51628 32.6942 5.53391 32.6074 5.56814 32.5266C5.60236 32.4459 5.65248 32.3728 5.71552 32.3117L8.08578 29.927C8.21622 29.8066 8.38728 29.7397 8.56487 29.7397C8.74246 29.7397 8.91352 29.8066 9.04397 29.927ZM20.1724 34.9316V38.2904C20.1724 38.4686 20.1016 38.6394 19.9755 38.7654C19.8494 38.8914 19.6783 38.9622 19.5 38.9622C19.3217 38.9622 19.1506 38.8914 19.0245 38.7654C18.8984 38.6394 18.8276 38.4686 18.8276 38.2904V34.9316C18.8276 34.7534 18.8984 34.5826 19.0245 34.4566C19.1506 34.3306 19.3217 34.2598 19.5 34.2598C19.6783 34.2598 19.8494 34.3306 19.9755 34.4566C20.1016 34.5826 20.1724 34.7534 20.1724 34.9316ZM33.2845 32.3117C33.3475 32.3728 33.3976 32.4459 33.4319 32.5266C33.4661 32.6074 33.4837 32.6942 33.4837 32.7819C33.4837 32.8697 33.4661 32.9565 33.4319 33.0373C33.3976 33.118 33.3475 33.1911 33.2845 33.2522C33.2236 33.3156 33.1505 33.3661 33.0696 33.4008C32.9888 33.4354 32.9018 33.4534 32.8138 33.4537C32.7257 33.4544 32.6384 33.4368 32.5573 33.4021C32.4763 33.3674 32.4034 33.3164 32.3431 33.2522L29.956 30.8842C29.829 30.7573 29.7576 30.5851 29.7576 30.4056C29.7576 30.2261 29.829 30.0539 29.956 29.927C30.0831 29.8 30.2554 29.7287 30.4351 29.7287C30.6148 29.7287 30.7872 29.8 30.9142 29.927L33.2845 32.3117ZM39 19.4811C39 19.6592 38.9292 19.8301 38.8031 19.9561C38.677 20.0821 38.5059 20.1528 38.3276 20.1528H34.9655C34.7872 20.1528 34.6161 20.0821 34.49 19.9561C34.3639 19.8301 34.2931 19.6592 34.2931 19.4811C34.2931 19.3029 34.3639 19.132 34.49 19.0061C34.6161 18.8801 34.7872 18.8093 34.9655 18.8093H38.3276C38.5059 18.8093 38.677 18.8801 38.8031 19.0061C38.9292 19.132 39 19.3029 39 19.4811ZM33.2845 5.70997C33.3475 5.77103 33.3976 5.84411 33.4319 5.92489C33.4661 6.00567 33.4837 6.09249 33.4837 6.1802C33.4837 6.26792 33.4661 6.35474 33.4319 6.43552C33.3976 6.51629 33.3475 6.58938 33.2845 6.65044L30.9142 9.03519C30.8525 9.09637 30.7789 9.14431 30.698 9.17607C30.617 9.20784 30.5304 9.22276 30.4435 9.21992C30.354 9.22408 30.2645 9.20983 30.1806 9.17805C30.0968 9.14628 30.0203 9.09766 29.956 9.03519C29.8355 8.90487 29.7686 8.73397 29.7686 8.55656C29.7686 8.37915 29.8355 8.20825 29.956 8.07793L32.3431 5.70997C32.4042 5.647 32.4774 5.59693 32.5582 5.56273C32.6391 5.52854 32.726 5.51092 32.8138 5.51092C32.9016 5.51092 32.9885 5.52854 33.0694 5.56273C33.1502 5.59693 33.2234 5.647 33.2845 5.70997Z" fill="white"/>
</svg>
