<svg width="24" height="24" fill="none" xmlns="http://www.w3.org/2000/svg"><path d="M21.76 5.907a8.069 8.069 0 0 1-2.327.641 4.085 4.085 0 0 0 1.782-2.25 8.152 8.152 0 0 1-2.576.988A4.034 4.034 0 0 0 15.681 4a4.062 4.062 0 0 0-4.054 4.07c0 .318.035.63.105.927a11.493 11.493 0 0 1-8.355-4.253c-.35.6-.548 1.3-.548 2.046 0 1.412.716 2.659 1.802 3.388a4.041 4.041 0 0 1-1.836-.511v.05a4.07 4.07 0 0 0 3.252 3.992c-.34.092-.698.143-1.069.143-.261 0-.515-.026-.763-.076a4.058 4.058 0 0 0 3.786 2.828 8.111 8.111 0 0 1-5.034 1.74c-.327 0-.65-.02-.967-.056a11.424 11.424 0 0 0 6.214 1.831c7.457 0 11.533-6.203 11.533-11.582l-.014-.527a8.113 8.113 0 0 0 2.028-2.103Z" fill="#fff"/></svg>