<svg width="24" height="24" fill="none" xmlns="http://www.w3.org/2000/svg"><path fill-rule="evenodd" clip-rule="evenodd" d="M16.448 5c2.516 0 3.833.348 4.546 1.202.717.857.77 2.17.77 4.076v3.444c0 2.184-.341 3.445-1.143 4.217-.782.754-1.991 1.061-4.173 1.061H7.316C2.822 19 2 17.223 2 13.722v-3.444c0-1.807 0-3.112.693-3.999C3.403 5.371 4.743 5 7.316 5h9.132Zm-5.906 9.657 4.147-2.181a.642.642 0 0 0-.002-1.139L10.541 9.17a.634.634 0 0 0-.625.021.643.643 0 0 0-.307.548v4.349a.643.643 0 0 0 .638.642.635.635 0 0 0 .295-.073Z" fill="#fff"/></svg>